<svg xmlns="http://www.w3.org/2000/svg" width="34" height="46" fill="none" viewBox="0 0 34 46">
  <path fill="#FFDD2F" d="M28.804 25.33c-1.485 3.009-3.497 6.007-5.554 8.698A89.239 89.239 0 0117 41.31a89.183 89.183 0 01-6.25-7.282C8.693 31.337 6.68 28.34 5.196 25.33 3.695 22.29 2.833 19.442 2.833 17a14.167 14.167 0 0128.334 0c0 2.442-.865 5.29-2.363 8.33zM17 45.333S34 29.223 34 17a17 17 0 00-34 0c0 12.223 17 28.333 17 28.333z"/>
  <path fill="#FFDD2F" d="M17 22.667a5.667 5.667 0 110-11.334 5.667 5.667 0 010 11.334zm0 2.833a8.5 8.5 0 100-17 8.5 8.5 0 000 17z"/>
</svg>
