<svg width="65" height="87" viewBox="0 0 65 87" fill="none" xmlns="http://www.w3.org/2000/svg">
<mask id="mask0" style="mask-type:alpha" maskUnits="userSpaceOnUse" x="0" y="0" width="65" height="87">
<rect width="65" height="87" fill="#C4C4C4"/>
</mask>
<g mask="url(#mask0)">
<path d="M0 -19.1875C0 -20.7291 0.428012 -22.2075 1.18988 -23.2976C1.95175 -24.3876 2.98506 -25 4.0625 -25H60.9375C62.0149 -25 63.0483 -24.3876 63.8101 -23.2976C64.572 -22.2075 65 -20.7291 65 -19.1875V62.1875C65 63.7291 64.572 65.2075 63.8101 66.2976C63.0483 67.3876 62.0149 68 60.9375 68H4.0625C2.98506 68 1.95175 67.3876 1.18988 66.2976C0.428012 65.2075 0 63.7291 0 62.1875V-19.1875ZM16.25 -19.1875V15.6875H48.75V-19.1875H16.25ZM48.75 27.3125H16.25V62.1875H48.75V27.3125ZM4.0625 -19.1875V-7.5625H12.1875V-19.1875H4.0625ZM12.1875 -1.75H4.0625V9.875H12.1875V-1.75ZM4.0625 15.6875V27.3125H12.1875V15.6875H4.0625ZM12.1875 33.125H4.0625V44.75H12.1875V33.125ZM4.0625 50.5625V62.1875H12.1875V50.5625H4.0625ZM60.9375 -19.1875H52.8125V-7.5625H60.9375V-19.1875ZM52.8125 -1.75V9.875H60.9375V-1.75H52.8125ZM60.9375 15.6875H52.8125V27.3125H60.9375V15.6875ZM52.8125 33.125V44.75H60.9375V33.125H52.8125ZM60.9375 50.5625H52.8125V62.1875H60.9375V50.5625Z" fill="white"/>
<g clip-path="url(#clip0)">
<path d="M0 67.8125C0 66.2709 0.428012 64.7925 1.18988 63.7024C1.95175 62.6124 2.98506 62 4.0625 62H60.9375C62.0149 62 63.0483 62.6124 63.8101 63.7024C64.572 64.7925 65 66.2709 65 67.8125V149.188C65 150.729 64.572 152.208 63.8101 153.298C63.0483 154.388 62.0149 155 60.9375 155H4.0625C2.98506 155 1.95175 154.388 1.18988 153.298C0.428012 152.208 0 150.729 0 149.188V67.8125ZM16.25 67.8125V102.688H48.75V67.8125H16.25ZM48.75 114.312H16.25V149.188H48.75V114.312ZM4.0625 67.8125V79.4375H12.1875V67.8125H4.0625ZM12.1875 85.25H4.0625V96.875H12.1875V85.25ZM4.0625 102.688V114.312H12.1875V102.688H4.0625ZM12.1875 120.125H4.0625V131.75H12.1875V120.125ZM4.0625 137.562V149.188H12.1875V137.562H4.0625ZM60.9375 67.8125H52.8125V79.4375H60.9375V67.8125ZM52.8125 85.25V96.875H60.9375V85.25H52.8125ZM60.9375 102.688H52.8125V114.312H60.9375V102.688ZM52.8125 120.125V131.75H60.9375V120.125H52.8125ZM60.9375 137.562H52.8125V149.188H60.9375V137.562Z" fill="white"/>
</g>
<rect y="60" width="4" height="13" fill="white"/>
<rect x="61" y="60" width="4" height="13" fill="white"/>
<rect x="15" y="61" width="36" height="11" fill="white"/>
</g>
<defs>
<clipPath id="clip0">
<rect width="65" height="93" fill="white" transform="translate(0 68)"/>
</clipPath>
</defs>
</svg>
