<svg xmlns="http://www.w3.org/2000/svg" width="34" height="34" fill="none" viewBox="0 0 34 34">
  <path fill="#FFDD2F" d="M0 8.5a4.25 4.25 0 014.25-4.25h25.5A4.25 4.25 0 0134 8.5v17a4.25 4.25 0 01-4.25 4.25H4.25A4.25 4.25 0 010 25.5v-17zm4.25-2.125A2.125 2.125 0 002.125 8.5v.461L17 17.886l14.875-8.925V8.5a2.125 2.125 0 00-2.125-2.125H4.25zm27.625 5.064l-10.11 6.067 10.11 6.111V11.44zm-.072 14.616L19.7 18.742 17 20.364l-2.703-1.622-12.1 7.31a2.125 2.125 0 002.053 1.573h25.5a2.126 2.126 0 002.053-1.57zM2.125 23.617l10.11-6.111-10.11-6.067v12.178z"/>
</svg>
