<svg xmlns="http://www.w3.org/2000/svg" width="34" height="34" fill="none" viewBox="0 0 34 34">
  <g clip-path="url(#clip0)">
    <path fill="#FFDD2F" d="M7.765 2.822a1.44 1.44 0 00-2.157-.134l-2.197 2.2c-1.027 1.028-1.405 2.484-.957 3.76a37.331 37.331 0 008.857 14.043 37.333 37.333 0 0014.042 8.857c1.277.448 2.733.07 3.762-.957l2.197-2.197a1.441 1.441 0 00-.134-2.157l-4.902-3.812a1.44 1.44 0 00-1.233-.26l-4.654 1.163a3.707 3.707 0 01-3.52-.975l-5.22-5.221a3.708 3.708 0 01-.977-3.522l1.164-4.653a1.44 1.44 0 00-.259-1.233L7.765 2.822zM4.003 1.086a3.708 3.708 0 015.551.346l3.812 4.9c.7.9.946 2.07.67 3.175l-1.163 4.654a1.44 1.44 0 00.379 1.366l5.22 5.221a1.441 1.441 0 001.37.379l4.65-1.163a3.707 3.707 0 013.175.67l4.9 3.812a3.707 3.707 0 01.347 5.548l-2.197 2.197c-1.573 1.573-3.923 2.264-6.114 1.492a39.598 39.598 0 01-14.896-9.392A39.598 39.598 0 01.314 9.397c-.769-2.19-.078-4.541 1.494-6.114l2.198-2.197h-.003z"/>
  </g>
  <defs>
    <clipPath id="clip0">
      <path fill="#fff" d="M0 0h34v34H0z"/>
    </clipPath>
  </defs>
</svg>
